<mxfile host="app.diagrams.net" agent="Mozilla/5.0 (Windows NT 10.0; Win64; x64) AppleWebKit/537.36 (KHTML, like Gecko) Chrome/137.0.0.0 Safari/537.36" version="27.1.6">
  <diagram name="페이지-1" id="cok5W431HVpMVeg1sM1W">
    <mxGraphModel dx="1185" dy="507" grid="1" gridSize="10" guides="1" tooltips="1" connect="1" arrows="1" fold="1" page="1" pageScale="1" pageWidth="827" pageHeight="1169" math="0" shadow="0">
      <root>
        <mxCell id="0" />
        <mxCell id="1" parent="0" />
        <mxCell id="af1WO6XY4dPdycEZpGGN-2" value="member" style="rounded=0;whiteSpace=wrap;html=1;" parent="1" vertex="1">
          <mxGeometry x="294" y="80" width="120" height="60" as="geometry" />
        </mxCell>
        <mxCell id="af1WO6XY4dPdycEZpGGN-13" style="edgeStyle=none;curved=1;rounded=0;orthogonalLoop=1;jettySize=auto;html=1;fontSize=12;startSize=8;endSize=8;" parent="1" source="af1WO6XY4dPdycEZpGGN-3" target="af1WO6XY4dPdycEZpGGN-2" edge="1">
          <mxGeometry relative="1" as="geometry" />
        </mxCell>
        <mxCell id="af1WO6XY4dPdycEZpGGN-14" style="edgeStyle=none;curved=1;rounded=0;orthogonalLoop=1;jettySize=auto;html=1;entryX=0.5;entryY=0;entryDx=0;entryDy=0;fontSize=12;startSize=8;endSize=8;" parent="1" source="af1WO6XY4dPdycEZpGGN-3" target="af1WO6XY4dPdycEZpGGN-8" edge="1">
          <mxGeometry relative="1" as="geometry" />
        </mxCell>
        <mxCell id="af1WO6XY4dPdycEZpGGN-3" value="enrollment" style="rounded=0;whiteSpace=wrap;html=1;" parent="1" vertex="1">
          <mxGeometry x="294" y="220" width="120" height="60" as="geometry" />
        </mxCell>
        <mxCell id="af1WO6XY4dPdycEZpGGN-4" value="instructor" style="rounded=0;whiteSpace=wrap;html=1;" parent="1" vertex="1">
          <mxGeometry x="80" y="220" width="120" height="61" as="geometry" />
        </mxCell>
        <mxCell id="af1WO6XY4dPdycEZpGGN-5" value="progress" style="rounded=0;whiteSpace=wrap;html=1;" parent="1" vertex="1">
          <mxGeometry x="530" y="220" width="120" height="60" as="geometry" />
        </mxCell>
        <mxCell id="af1WO6XY4dPdycEZpGGN-6" value="lesson" style="rounded=0;whiteSpace=wrap;html=1;" parent="1" vertex="1">
          <mxGeometry x="530" y="350" width="120" height="60" as="geometry" />
        </mxCell>
        <mxCell id="af1WO6XY4dPdycEZpGGN-7" value="section" style="rounded=0;whiteSpace=wrap;html=1;" parent="1" vertex="1">
          <mxGeometry x="530" y="480" width="120" height="60" as="geometry" />
        </mxCell>
        <mxCell id="af1WO6XY4dPdycEZpGGN-8" value="course" style="rounded=0;whiteSpace=wrap;html=1;" parent="1" vertex="1">
          <mxGeometry x="294" y="350" width="120" height="60" as="geometry" />
        </mxCell>
        <mxCell id="af1WO6XY4dPdycEZpGGN-11" value="0..1" style="text;html=1;align=center;verticalAlign=middle;resizable=0;points=[];autosize=1;strokeColor=none;fillColor=none;fontSize=16;" parent="1" vertex="1">
          <mxGeometry x="79" y="191" width="50" height="30" as="geometry" />
        </mxCell>
        <mxCell id="af1WO6XY4dPdycEZpGGN-15" value="" style="endArrow=none;html=1;rounded=0;fontSize=12;startSize=8;endSize=8;curved=1;entryX=0;entryY=0.5;entryDx=0;entryDy=0;exitX=1;exitY=0.5;exitDx=0;exitDy=0;" parent="1" source="af1WO6XY4dPdycEZpGGN-3" target="af1WO6XY4dPdycEZpGGN-5" edge="1">
          <mxGeometry width="50" height="50" relative="1" as="geometry">
            <mxPoint x="414" y="260" as="sourcePoint" />
            <mxPoint x="464" y="210" as="targetPoint" />
          </mxGeometry>
        </mxCell>
        <mxCell id="af1WO6XY4dPdycEZpGGN-17" value="" style="endArrow=none;html=1;rounded=0;fontSize=12;startSize=8;endSize=8;curved=1;exitX=0.5;exitY=0;exitDx=0;exitDy=0;entryX=0.5;entryY=1;entryDx=0;entryDy=0;" parent="1" source="af1WO6XY4dPdycEZpGGN-7" target="af1WO6XY4dPdycEZpGGN-6" edge="1">
          <mxGeometry width="50" height="50" relative="1" as="geometry">
            <mxPoint x="550" y="460" as="sourcePoint" />
            <mxPoint x="600" y="410" as="targetPoint" />
          </mxGeometry>
        </mxCell>
        <mxCell id="af1WO6XY4dPdycEZpGGN-18" value="" style="endArrow=none;html=1;rounded=0;fontSize=12;startSize=8;endSize=8;curved=1;" parent="1" edge="1">
          <mxGeometry width="50" height="50" relative="1" as="geometry">
            <mxPoint x="129" y="380" as="sourcePoint" />
            <mxPoint x="129" y="281" as="targetPoint" />
          </mxGeometry>
        </mxCell>
        <mxCell id="af1WO6XY4dPdycEZpGGN-19" value="" style="endArrow=none;html=1;rounded=0;fontSize=12;startSize=8;endSize=8;curved=1;entryX=0;entryY=0.5;entryDx=0;entryDy=0;" parent="1" target="af1WO6XY4dPdycEZpGGN-8" edge="1">
          <mxGeometry width="50" height="50" relative="1" as="geometry">
            <mxPoint x="130" y="380" as="sourcePoint" />
            <mxPoint x="294" y="372.31999999999994" as="targetPoint" />
          </mxGeometry>
        </mxCell>
        <mxCell id="af1WO6XY4dPdycEZpGGN-20" value="" style="endArrow=none;html=1;rounded=0;fontSize=12;startSize=8;endSize=8;curved=1;" parent="1" edge="1">
          <mxGeometry width="50" height="50" relative="1" as="geometry">
            <mxPoint x="130" y="221" as="sourcePoint" />
            <mxPoint x="130" y="110" as="targetPoint" />
          </mxGeometry>
        </mxCell>
        <mxCell id="af1WO6XY4dPdycEZpGGN-21" value="" style="endArrow=none;html=1;rounded=0;fontSize=12;startSize=8;endSize=8;curved=1;" parent="1" target="af1WO6XY4dPdycEZpGGN-2" edge="1">
          <mxGeometry width="50" height="50" relative="1" as="geometry">
            <mxPoint x="130" y="110" as="sourcePoint" />
            <mxPoint x="179" y="70" as="targetPoint" />
          </mxGeometry>
        </mxCell>
        <mxCell id="af1WO6XY4dPdycEZpGGN-22" value="1" style="text;html=1;align=center;verticalAlign=middle;resizable=0;points=[];autosize=1;strokeColor=none;fillColor=none;fontSize=16;" parent="1" vertex="1">
          <mxGeometry x="259" y="81" width="30" height="30" as="geometry" />
        </mxCell>
        <mxCell id="af1WO6XY4dPdycEZpGGN-23" value="1" style="text;html=1;align=center;verticalAlign=middle;resizable=0;points=[];autosize=1;strokeColor=none;fillColor=none;fontSize=16;" parent="1" vertex="1">
          <mxGeometry x="319" y="140" width="30" height="30" as="geometry" />
        </mxCell>
        <mxCell id="af1WO6XY4dPdycEZpGGN-24" value="0..*" style="text;html=1;align=center;verticalAlign=middle;resizable=0;points=[];autosize=1;strokeColor=none;fillColor=none;fontSize=16;" parent="1" vertex="1">
          <mxGeometry x="309" y="181" width="50" height="30" as="geometry" />
        </mxCell>
        <mxCell id="af1WO6XY4dPdycEZpGGN-26" value="0..*" style="text;html=1;align=center;verticalAlign=middle;resizable=0;points=[];autosize=1;strokeColor=none;fillColor=none;fontSize=16;" parent="1" vertex="1">
          <mxGeometry x="309" y="280" width="50" height="30" as="geometry" />
        </mxCell>
        <mxCell id="af1WO6XY4dPdycEZpGGN-27" value="1" style="text;html=1;align=center;verticalAlign=middle;resizable=0;points=[];autosize=1;strokeColor=none;fillColor=none;fontSize=16;" parent="1" vertex="1">
          <mxGeometry x="319" y="321" width="30" height="30" as="geometry" />
        </mxCell>
        <mxCell id="af1WO6XY4dPdycEZpGGN-28" value="0..*" style="text;html=1;align=center;verticalAlign=middle;resizable=0;points=[];autosize=1;strokeColor=none;fillColor=none;fontSize=16;" parent="1" vertex="1">
          <mxGeometry x="244" y="380" width="50" height="30" as="geometry" />
        </mxCell>
        <mxCell id="af1WO6XY4dPdycEZpGGN-29" value="1" style="text;html=1;align=center;verticalAlign=middle;resizable=0;points=[];autosize=1;strokeColor=none;fillColor=none;fontSize=16;" parent="1" vertex="1">
          <mxGeometry x="99" y="281" width="30" height="30" as="geometry" />
        </mxCell>
        <mxCell id="af1WO6XY4dPdycEZpGGN-30" value="1" style="text;html=1;align=center;verticalAlign=middle;resizable=0;points=[];autosize=1;strokeColor=none;fillColor=none;fontSize=16;" parent="1" vertex="1">
          <mxGeometry x="414" y="221" width="30" height="30" as="geometry" />
        </mxCell>
        <mxCell id="af1WO6XY4dPdycEZpGGN-31" value="1" style="text;html=1;align=center;verticalAlign=middle;resizable=0;points=[];autosize=1;strokeColor=none;fillColor=none;fontSize=16;" parent="1" vertex="1">
          <mxGeometry x="499" y="221" width="30" height="30" as="geometry" />
        </mxCell>
        <mxCell id="af1WO6XY4dPdycEZpGGN-33" value="" style="endArrow=none;html=1;rounded=0;fontSize=12;startSize=8;endSize=8;curved=1;entryX=0;entryY=0.5;entryDx=0;entryDy=0;" parent="1" target="af1WO6XY4dPdycEZpGGN-6" edge="1">
          <mxGeometry width="50" height="50" relative="1" as="geometry">
            <mxPoint x="414" y="380" as="sourcePoint" />
            <mxPoint x="464" y="330" as="targetPoint" />
          </mxGeometry>
        </mxCell>
        <mxCell id="af1WO6XY4dPdycEZpGGN-34" value="1" style="text;html=1;align=center;verticalAlign=middle;resizable=0;points=[];autosize=1;strokeColor=none;fillColor=none;fontSize=16;" parent="1" vertex="1">
          <mxGeometry x="409" y="351" width="30" height="30" as="geometry" />
        </mxCell>
        <mxCell id="af1WO6XY4dPdycEZpGGN-35" value="0..*" style="text;html=1;align=center;verticalAlign=middle;resizable=0;points=[];autosize=1;strokeColor=none;fillColor=none;fontSize=16;" parent="1" vertex="1">
          <mxGeometry x="489" y="351" width="50" height="30" as="geometry" />
        </mxCell>
        <mxCell id="af1WO6XY4dPdycEZpGGN-36" value="" style="endArrow=none;html=1;rounded=0;fontSize=12;startSize=8;endSize=8;curved=1;" parent="1" target="af1WO6XY4dPdycEZpGGN-8" edge="1">
          <mxGeometry width="50" height="50" relative="1" as="geometry">
            <mxPoint x="360" y="510" as="sourcePoint" />
            <mxPoint x="359" y="410" as="targetPoint" />
          </mxGeometry>
        </mxCell>
        <mxCell id="af1WO6XY4dPdycEZpGGN-37" value="" style="endArrow=none;html=1;rounded=0;fontSize=12;startSize=8;endSize=8;curved=1;entryX=0;entryY=0.5;entryDx=0;entryDy=0;" parent="1" target="af1WO6XY4dPdycEZpGGN-7" edge="1">
          <mxGeometry width="50" height="50" relative="1" as="geometry">
            <mxPoint x="360" y="510" as="sourcePoint" />
            <mxPoint x="409" y="460" as="targetPoint" />
          </mxGeometry>
        </mxCell>
        <mxCell id="af1WO6XY4dPdycEZpGGN-38" value="0..*" style="text;html=1;align=center;verticalAlign=middle;resizable=0;points=[];autosize=1;strokeColor=none;fillColor=none;fontSize=16;" parent="1" vertex="1">
          <mxGeometry x="479" y="481" width="50" height="30" as="geometry" />
        </mxCell>
        <mxCell id="af1WO6XY4dPdycEZpGGN-39" value="1" style="text;html=1;align=center;verticalAlign=middle;resizable=0;points=[];autosize=1;strokeColor=none;fillColor=none;fontSize=16;" parent="1" vertex="1">
          <mxGeometry x="329" y="410" width="30" height="30" as="geometry" />
        </mxCell>
        <mxCell id="af1WO6XY4dPdycEZpGGN-40" value="0..*" style="text;html=1;align=center;verticalAlign=middle;resizable=0;points=[];autosize=1;strokeColor=none;fillColor=none;fontSize=16;" parent="1" vertex="1">
          <mxGeometry x="539" y="411" width="50" height="30" as="geometry" />
        </mxCell>
        <mxCell id="af1WO6XY4dPdycEZpGGN-41" value="1" style="text;html=1;align=center;verticalAlign=middle;resizable=0;points=[];autosize=1;strokeColor=none;fillColor=none;fontSize=16;" parent="1" vertex="1">
          <mxGeometry x="559" y="451" width="30" height="30" as="geometry" />
        </mxCell>
      </root>
    </mxGraphModel>
  </diagram>
</mxfile>
